<svg xmlns="http://www.w3.org/2000/svg" data-name="Camada 1" viewBox="0 0 100 125" x="0px" y="0px"><title>DNA</title><polygon fill="white" points="39.98 68.42 44.22 64.18 30.09 50.05 74.13 6 90.61 6 90.61 0 71.65 0 24.61 47.05 7.77 47.05 7.77 53.05 24.61 53.05 39.98 68.42"/><polygon fill="white" points="75.39 46.96 59.89 31.45 55.65 35.7 69.91 49.96 25.86 94 9.39 94 9.39 100 28.35 100 75.39 52.96 92.23 52.96 92.23 46.96 75.39 46.96"/><polygon fill="grey" points="59.85 79.81 55.61 84.05 71.56 100 92.23 100 92.23 94 74.05 94 59.85 79.81"/><polygon fill="grey" points="40.14 20.19 44.39 15.95 28.44 0 7.77 0 7.77 6 25.95 6 40.14 20.19"/></svg>